<?xml version="1.0" encoding="UTF-8"?>
<!DOCTYPE svg PUBLIC "-//W3C//DTD SVG 1.1//EN" "http://www.w3.org/Graphics/SVG/1.1/DTD/svg11.dtd">
<svg version="1.1" xmlns="http://www.w3.org/2000/svg" xmlns:xlink="http://www.w3.org/1999/xlink" x="0" y="0" width="223.609" height="146.011" viewBox="0, 0, 223.609, 146.011">
  <g id="Layer_1">
    <path d="M73.405,67.891 L83.057,16.319" fill-opacity="0" stroke="#4472C4" stroke-width="1"/>
    <path d="M12.897,106.625 C3.393,85.557 2.995,65.182 12.007,61.117 C21.018,57.052 36.028,70.835 45.532,91.903 C55.036,112.971 55.434,133.346 46.423,137.411 C37.411,141.476 22.401,127.693 12.897,106.625 z" fill-opacity="0" stroke="#70AD47" stroke-width="2.25"/>
    <path d="M122.251,53.874 L139.594,73.883 L145.198,90.44 L173.278,106.633 L178.842,144.787 L62.544,145.01 L82.977,122.023 L71.517,108.414 L84.126,89.958 L72.905,67.391 L96.043,49.582 L122.251,53.874 z" fill="#D0CECE"/>
    <path d="M122.751,54.374 L140.094,74.383 L145.698,90.94 L173.778,107.133 L179.342,145.287 L63.044,145.511 L83.477,122.523 L72.016,108.914 L84.626,90.458 L73.405,67.891 L96.543,50.082 L122.751,54.374 z" fill-opacity="0" stroke="#787878" stroke-width="0.75"/>
    <path d="M83.477,122.523 L34.434,114.986" fill-opacity="0" stroke="#4472C4" stroke-width="1"/>
    <path d="M73.405,67.891 L17.467,80.698" fill-opacity="0" stroke="#4472C4" stroke-width="1"/>
    <path d="M84.626,90.458 L17.467,80.698" fill-opacity="0" stroke="#4472C4" stroke-width="1"/>
    <path d="M17.467,80.698 L72.017,108.914" fill-opacity="0" stroke="#4472C4" stroke-width="1"/>
    <path d="M34.434,114.986 L72.017,108.914" fill-opacity="0" stroke="#4472C4" stroke-width="1"/>
    <path d="M75.701,67.576 C75.701,69.142 74.432,70.411 72.867,70.411 C71.301,70.411 70.032,69.142 70.032,67.576 C70.032,66.011 71.301,64.742 72.867,64.742 C74.432,64.742 75.701,66.011 75.701,67.576 z" fill="#70AD47"/>
    <path d="M30.234,121.298 L29.991,107.386 L37.627,107.253 L37.87,121.165 z" fill="#000000"/>
    <path d="M30.734,121.798 L30.491,107.886 L38.127,107.753 L38.37,121.665 z" fill-opacity="0" stroke="#000000" stroke-width="1"/>
    <path d="M42.256,119.43 L33.934,114.486 L42.079,109.254 z" fill="#000000"/>
    <path d="M42.756,119.93 L34.434,114.986 L42.579,109.754 z" fill-opacity="0" stroke="#000000" stroke-width="1"/>
    <path d="M12.465,86.508 L13.919,72.671 L21.514,73.469 L20.059,87.307 z" fill="#000000"/>
    <path d="M12.965,87.008 L14.419,73.171 L22.014,73.969 L20.559,87.807 z" fill-opacity="0" stroke="#000000" stroke-width="1"/>
    <path d="M24.625,86.12 L16.967,80.198 L25.689,75.998 z" fill="#000000"/>
    <path d="M25.125,86.62 L17.467,80.698 L26.189,76.498 z" fill-opacity="0" stroke="#000000" stroke-width="1"/>
    <path d="M96.543,50.082 L83.057,16.319" fill-opacity="0" stroke="#4472C4" stroke-width="1"/>
    <path d="M75.811,19.637 L89.725,19.637 L89.725,12.001 L75.811,12.001 z" fill="#000000"/>
    <path d="M76.311,12.501 L90.225,12.501 L90.225,20.137 L76.311,20.137 z" fill-opacity="0" stroke="#000000" stroke-width="1"/>
    <path d="M77.468,24.053 L82.557,15.819 L87.646,24.053 z" fill="#000000"/>
    <path d="M77.968,24.553 L83.057,16.319 L88.146,24.553 z" fill-opacity="0" stroke="#000000" stroke-width="1"/>
    <path d="M155.417,8.507 L122.751,54.374" fill-opacity="0" stroke="#4472C4" stroke-width="1"/>
    <path d="M155.417,8.507 L140.094,74.383" fill-opacity="0" stroke="#4472C4" stroke-width="1"/>
    <path d="M155.417,8.506 L96.543,50.082" fill-opacity="0" stroke="#4472C4" stroke-width="1"/>
    <path d="M151.601,1 L162.976,9.013 L158.578,15.256 L147.203,7.243 z" fill="#000000"/>
    <path d="M152.101,1.5 L163.476,9.513 L159.078,15.756 L147.703,7.743 z" fill-opacity="0" stroke="#000000" stroke-width="1"/>
    <path d="M146.015,11.808 L154.917,8.006 L154.335,17.669 z" fill="#000000"/>
    <path d="M146.515,12.308 L155.417,8.507 L154.835,18.169 z" fill-opacity="0" stroke="#000000" stroke-width="1"/>
    <path d="M202.034,60.953 L140.094,74.383" fill-opacity="0" stroke="#4472C4" stroke-width="1"/>
    <path d="M202.034,60.952 L145.698,90.94" fill-opacity="0" stroke="#4472C4" stroke-width="1"/>
    <path d="M202.034,62.146 L122.751,55.568" fill-opacity="0" stroke="#4472C4" stroke-width="1"/>
    <path d="M203.654,52.996 L206.934,66.518 L199.513,68.318 L196.233,54.796 z" fill="#000000"/>
    <path d="M204.154,53.496 L207.434,67.018 L200.013,68.818 L196.733,55.296 z" fill-opacity="0" stroke="#000000" stroke-width="1"/>
    <path d="M192.332,57.448 L201.534,60.452 L194.731,67.339 z" fill="#000000"/>
    <path d="M192.832,57.948 L202.034,60.952 L195.231,67.839 z" fill-opacity="0" stroke="#000000" stroke-width="1"/>
    <path d="M204.252,108.544 L145.698,90.94" fill-opacity="0" stroke="#4472C4" stroke-width="1"/>
    <path d="M204.252,108.544 L173.777,107.133" fill-opacity="0" stroke="#4472C4" stroke-width="1"/>
    <path d="M208.144,101.656 L206.931,115.517 L199.324,114.852 L200.536,100.991 z" fill="#000000"/>
    <path d="M208.644,102.157 L207.431,116.017 L199.824,115.352 L201.036,101.491 z" fill-opacity="0" stroke="#000000" stroke-width="1"/>
    <path d="M195.992,102.257 L203.752,108.044 L195.105,112.396 z" fill="#000000"/>
    <path d="M196.492,102.757 L204.252,108.544 L195.605,112.896 z" fill-opacity="0" stroke="#000000" stroke-width="1"/>
    <path d="M183.138,37.653 L140.095,74.383" fill-opacity="0" stroke="#4472C4" stroke-width="1"/>
    <path d="M183.138,37.653 L145.698,90.94" fill-opacity="0" stroke="#4472C4" stroke-width="1"/>
    <path d="M179.322,30.147 L190.697,38.16 L186.299,44.403 L174.924,36.39 z" fill="#000000"/>
    <path d="M179.822,30.647 L191.197,38.66 L186.799,44.903 L175.424,36.89 z" fill-opacity="0" stroke="#000000" stroke-width="1"/>
    <path d="M173.736,40.955 L182.638,37.153 L182.056,46.816 z" fill="#000000"/>
    <path d="M174.236,41.455 L183.138,37.653 L182.556,47.316 z" fill-opacity="0" stroke="#000000" stroke-width="1"/>
    <path d="M74.882,108.399 C74.882,109.964 73.613,111.233 72.048,111.233 C70.482,111.233 69.213,109.964 69.213,108.399 C69.213,106.833 70.482,105.564 72.048,105.564 C73.613,105.564 74.882,106.833 74.882,108.399 z" fill="#70AD47"/>
    <path d="M86.578,89.934 C86.578,91.499 85.309,92.768 83.743,92.768 C82.178,92.768 80.908,91.499 80.908,89.934 C80.908,88.368 82.178,87.099 83.743,87.099 C85.309,87.099 86.578,88.368 86.578,89.934 z" fill="#70AD47"/>
    <path d="M98.986,49.905 C98.986,51.471 97.717,52.74 96.151,52.74 C94.585,52.74 93.316,51.471 93.316,49.905 C93.316,48.34 94.585,47.071 96.151,47.071 C97.717,47.071 98.986,48.34 98.986,49.905 z" fill="#000000"/>
    <path d="M125.693,54.519 C125.693,56.084 124.424,57.353 122.858,57.353 C121.293,57.353 120.024,56.084 120.024,54.519 C120.024,52.953 121.293,51.684 122.858,51.684 C124.424,51.684 125.693,52.953 125.693,54.519 z" fill="#ED7D31"/>
    <path d="M142.195,74.333 C142.195,75.898 140.926,77.168 139.361,77.168 C137.795,77.168 136.526,75.898 136.526,74.333 C136.526,72.767 137.795,71.498 139.361,71.498 C140.926,71.498 142.195,72.767 142.195,74.333 z" fill="#ED7D31"/>
    <path d="M147.944,90.115 C147.944,91.68 146.675,92.949 145.109,92.949 C143.544,92.949 142.275,91.68 142.275,90.115 C142.275,88.549 143.544,87.28 145.109,87.28 C146.675,87.28 147.944,88.549 147.944,90.115 z" fill="#ED7D31"/>
    <path d="M176.448,107.277 C176.448,108.842 175.179,110.111 173.613,110.111 C172.048,110.111 170.779,108.842 170.779,107.277 C170.779,105.711 172.048,104.442 173.613,104.442 C175.179,104.442 176.448,105.711 176.448,107.277 z" fill="#ED7D31"/>
    <path d="M85.477,121.755 C85.477,123.32 84.208,124.589 82.643,124.589 C81.077,124.589 79.808,123.32 79.808,121.755 C79.808,120.189 81.077,118.92 82.643,118.92 C84.208,118.92 85.477,120.189 85.477,121.755 z" fill="#70AD47"/>
    <path d="M173.805,79.066 C164.955,49.98 166.652,23.7 177.597,20.37 C188.542,17.04 204.589,37.92 213.439,67.006 C222.29,96.093 220.592,122.372 209.648,125.702 C198.703,129.033 182.656,108.153 173.805,79.066 z" fill-opacity="0" stroke="#ED7D31" stroke-width="2.25"/>
  </g>
</svg>
